<?xml version="1.0" standalone="no"?>
<!DOCTYPE svg PUBLIC "-//W3C//DTD SVG 20010904//EN"
 "http://www.w3.org/TR/2001/REC-SVG-20010904/DTD/svg10.dtd">
<svg version="1.0" xmlns="http://www.w3.org/2000/svg"
 width="336.000000pt" height="336.000000pt" viewBox="0 0 336.000000 336.000000"
 preserveAspectRatio="xMidYMid meet">
<metadata>
Created by potrace 1.11, written by Peter Selinger 2001-2013
</metadata>
<g transform="translate(0.000000,336.000000) scale(0.100000,-0.100000)"
fill="#000000" stroke="none">
<path d="M1530 3353 c-231 -32 -335 -59 -500 -131 -388 -169 -698 -486 -858
-879 -41 -99 -86 -254 -97 -328 -3 -23 -8 -52 -11 -65 -10 -44 -13 -343 -4
-410 35 -261 116 -489 247 -693 221 -345 568 -597 965 -702 51 -13 116 -27
143 -30 28 -4 61 -9 75 -11 14 -3 86 -7 161 -8 336 -8 661 86 934 268 49 33
101 70 114 81 84 69 166 150 248 245 17 19 60 78 95 130 257 379 339 867 222
1319 -99 381 -327 704 -661 938 -182 127 -417 220 -663 263 -62 11 -357 21
-410 13z m350 -88 c166 -21 349 -79 511 -161 409 -209 715 -609 809 -1057 170
-814 -334 -1625 -1131 -1820 -135 -33 -143 -35 -215 -42 -301 -32 -585 19
-859 155 -422 210 -721 591 -824 1050 -30 135 -39 227 -35 370 3 130 5 154 30
280 32 163 117 371 210 517 152 239 386 446 639 568 150 72 344 127 500 142
33 3 61 7 63 8 6 5 250 -3 302 -10z"/>
<path d="M1330 2769 c-122 -15 -155 -19 -175 -23 -11 -3 -23 -5 -27 -5 -5 -1
-8 -449 -8 -996 l0 -995 23 -1 c12 0 31 -3 42 -6 51 -12 523 -11 605 2 124 20
129 21 200 45 106 36 181 80 246 147 160 165 200 420 98 628 -49 101 -172 205
-295 250 l-62 22 54 25 c185 87 291 244 288 428 -5 254 -177 421 -491 477 -52
9 -426 11 -498 2z m480 -214 c116 -36 177 -84 216 -169 49 -108 28 -246 -50
-333 -62 -69 -150 -112 -261 -128 -34 -4 -279 -9 -322 -6 -10 1 -13 72 -13
321 l0 319 33 5 c17 3 43 7 57 9 68 10 288 -2 340 -18z m-10 -860 c231 -62
342 -223 304 -441 -28 -166 -138 -263 -343 -303 -77 -15 -287 -20 -356 -8 -20
4 -20 13 -23 392 l-2 388 177 -6 c121 -4 199 -11 243 -22z"/>
</g>
</svg>
